<svg width="595" height="160" viewBox="0 0 595 160" fill="none" xmlns="http://www.w3.org/2000/svg">
  <style>
    * {
      transform-origin: center;
      transform-box: fill-box;
    }

    .animate-ping {
      animation: ping 1s cubic-bezier(0, 0, 0.2, 1) infinite;
    }

    .animate-fade-in {
      animation: fade-in 0.64s cubic-bezier(0, 0, 0.2, 1) forwards;
    }

    .animate-fade-in-bottom {
      animation: fade-in-bottom 0.64s cubic-bezier(0, 0, 0.2, 1) forwards;
    }

    .animate-fade-in-right {
      animation: fade-in-right 0.64s cubic-bezier(0, 0, 0.2, 1) forwards;
    }

    .title {
      opacity: 0;
      animation-delay: 0.4s;
    }

    .description {
      opacity: 0;
      animation-delay: 0.7s;
    }

    .additional {
      opacity: 0;
      animation-delay: 1s;
    }

    .additional__indicator {
      opacity: 0;
      animation-delay: 1.6s;
    }

    @keyframes ping {

      75%,
      100% {
        transform: scale(2);
        opacity: 0;
      }
    }

    @keyframes fade-in {
      from {
        opacity: 0;
      }

      to {
        opacity: 1;
      }
    }

    @keyframes fade-in-bottom {
      from {
        opacity: 0;
        transform: translate3d(0, -20px, 0);
      }

      to {
        opacity: 1;
        transform: translate3d(0, 0, 0);
      }
    }

    @keyframes fade-in-right {
      from {
        opacity: 0;
        transform: translate3d(-20px, 0, 0);
      }

      to {
        opacity: 1;
        transform: translate3d(0, 0, 0);
      }
    }
  </style>
  <g clip-path="url(#clip0_1_241)">
    <g opacity="0.92" filter="url(#filter0_f_1_241)">
      <path fill-rule="evenodd" clip-rule="evenodd"
        d="M294.025 -195.397C371.794 -199.207 417.023 -166.547 478.556 -148.54C549.444 -127.795 653.905 -123.815 675.717 -83.6979C699.621 -39.7355 651.378 11.8858 588.324 53.3407C522.583 96.5619 431.59 129.344 329.788 143.735C219.591 159.312 100.989 162.573 17.727 133.999C-66.2641 105.174 -107.423 52.1926 -95.8451 -2.3348C-85.4966 -51.0729 -2.38714 -91.1162 73.5049 -128.698C137.254 -160.266 210.104 -191.286 294.025 -195.397Z"
        fill="url(#paint0_angular_1_241)" fill-opacity="0.72" />
    </g>
    <line y1="14.2955" x2="595" y2="14.2955" stroke="white" stroke-opacity="0.1" stroke-width="0.5"
      stroke-dasharray="2 2" />
    <line y1="28.8409" x2="595" y2="28.8409" stroke="white" stroke-opacity="0.1" stroke-width="0.5"
      stroke-dasharray="2 2" />
    <line y1="43.3864" x2="595" y2="43.3864" stroke="white" stroke-opacity="0.1" stroke-width="0.5"
      stroke-dasharray="2 2" />
    <line y1="57.9318" x2="595" y2="57.9318" stroke="white" stroke-opacity="0.1" stroke-width="0.5"
      stroke-dasharray="2 2" />
    <line y1="72.4773" x2="595" y2="72.4773" stroke="white" stroke-opacity="0.1" stroke-width="0.5"
      stroke-dasharray="2 2" />
    <line y1="87.0227" x2="595" y2="87.0227" stroke="white" stroke-opacity="0.1" stroke-width="0.5"
      stroke-dasharray="2 2" />
    <line y1="101.568" x2="595" y2="101.568" stroke="white" stroke-opacity="0.1" stroke-width="0.5"
      stroke-dasharray="2 2" />
    <line y1="116.114" x2="595" y2="116.114" stroke="white" stroke-opacity="0.1" stroke-width="0.5"
      stroke-dasharray="2 2" />
    <line y1="130.659" x2="595" y2="130.659" stroke="white" stroke-opacity="0.1" stroke-width="0.5"
      stroke-dasharray="2 2" />
    <line y1="145.205" x2="595" y2="145.205" stroke="white" stroke-opacity="0.1" stroke-width="0.5"
      stroke-dasharray="2 2" />
    <line y1="159.75" x2="595" y2="159.75" stroke="white" stroke-opacity="0.1" stroke-width="0.5"
      stroke-dasharray="2 2" />
    <line x1="0.25" y1="1.09278e-08" x2="0.249992" y2="176" stroke="white" stroke-opacity="0.1" stroke-width="0.5"
      stroke-dasharray="2 2" />
    <line x1="16.25" y1="1.09278e-08" x2="16.25" y2="176" stroke="white" stroke-opacity="0.1" stroke-width="0.5"
      stroke-dasharray="2 2" />
    <line x1="32.25" y1="1.09278e-08" x2="32.25" y2="176" stroke="white" stroke-opacity="0.1" stroke-width="0.5"
      stroke-dasharray="2 2" />
    <line x1="48.25" y1="1.09278e-08" x2="48.25" y2="176" stroke="white" stroke-opacity="0.1" stroke-width="0.5"
      stroke-dasharray="2 2" />
    <line x1="64.25" y1="1.09278e-08" x2="64.25" y2="176" stroke="white" stroke-opacity="0.1" stroke-width="0.5"
      stroke-dasharray="2 2" />
    <line x1="80.25" y1="1.09278e-08" x2="80.25" y2="176" stroke="white" stroke-opacity="0.1" stroke-width="0.5"
      stroke-dasharray="2 2" />
    <line x1="96.25" y1="1.09278e-08" x2="96.25" y2="176" stroke="white" stroke-opacity="0.1" stroke-width="0.5"
      stroke-dasharray="2 2" />
    <line x1="112.25" y1="1.09278e-08" x2="112.25" y2="176" stroke="white" stroke-opacity="0.1" stroke-width="0.5"
      stroke-dasharray="2 2" />
    <line x1="128.25" y1="1.09278e-08" x2="128.25" y2="176" stroke="white" stroke-opacity="0.1" stroke-width="0.5"
      stroke-dasharray="2 2" />
    <line x1="144.25" y1="1.09278e-08" x2="144.25" y2="176" stroke="white" stroke-opacity="0.1" stroke-width="0.5"
      stroke-dasharray="2 2" />
    <line x1="160.25" y1="1.09278e-08" x2="160.25" y2="176" stroke="white" stroke-opacity="0.1" stroke-width="0.5"
      stroke-dasharray="2 2" />
    <line x1="176.25" y1="1.09278e-08" x2="176.25" y2="176" stroke="white" stroke-opacity="0.1" stroke-width="0.5"
      stroke-dasharray="2 2" />
    <line x1="192.25" y1="1.09278e-08" x2="192.25" y2="176" stroke="white" stroke-opacity="0.1" stroke-width="0.5"
      stroke-dasharray="2 2" />
    <line x1="208.25" y1="1.09278e-08" x2="208.25" y2="176" stroke="white" stroke-opacity="0.1" stroke-width="0.5"
      stroke-dasharray="2 2" />
    <line x1="224.25" y1="1.09278e-08" x2="224.25" y2="176" stroke="white" stroke-opacity="0.1" stroke-width="0.5"
      stroke-dasharray="2 2" />
    <line x1="240.25" y1="1.09278e-08" x2="240.25" y2="176" stroke="white" stroke-opacity="0.1" stroke-width="0.5"
      stroke-dasharray="2 2" />
    <line x1="256.25" y1="1.09278e-08" x2="256.25" y2="176" stroke="white" stroke-opacity="0.1" stroke-width="0.5"
      stroke-dasharray="2 2" />
    <line x1="272.25" y1="1.09278e-08" x2="272.25" y2="176" stroke="white" stroke-opacity="0.1" stroke-width="0.5"
      stroke-dasharray="2 2" />
    <line x1="288.25" y1="1.09278e-08" x2="288.25" y2="176" stroke="white" stroke-opacity="0.1" stroke-width="0.5"
      stroke-dasharray="2 2" />
    <line x1="304.25" y1="1.09278e-08" x2="304.25" y2="176" stroke="white" stroke-opacity="0.1" stroke-width="0.5"
      stroke-dasharray="2 2" />
    <line x1="320.25" y1="1.09278e-08" x2="320.25" y2="176" stroke="white" stroke-opacity="0.1" stroke-width="0.5"
      stroke-dasharray="2 2" />
    <line x1="336.25" y1="1.09278e-08" x2="336.25" y2="176" stroke="white" stroke-opacity="0.1" stroke-width="0.5"
      stroke-dasharray="2 2" />
    <line x1="352.25" y1="1.09278e-08" x2="352.25" y2="176" stroke="white" stroke-opacity="0.1" stroke-width="0.5"
      stroke-dasharray="2 2" />
    <line x1="368.25" y1="1.09278e-08" x2="368.25" y2="176" stroke="white" stroke-opacity="0.1" stroke-width="0.5"
      stroke-dasharray="2 2" />
    <line x1="384.25" y1="1.09278e-08" x2="384.25" y2="176" stroke="white" stroke-opacity="0.1" stroke-width="0.5"
      stroke-dasharray="2 2" />
    <line x1="400.25" y1="1.09278e-08" x2="400.25" y2="176" stroke="white" stroke-opacity="0.1" stroke-width="0.5"
      stroke-dasharray="2 2" />
    <line x1="416.25" y1="1.09278e-08" x2="416.25" y2="176" stroke="white" stroke-opacity="0.1" stroke-width="0.5"
      stroke-dasharray="2 2" />
    <line x1="432.25" y1="1.09278e-08" x2="432.25" y2="176" stroke="white" stroke-opacity="0.1" stroke-width="0.5"
      stroke-dasharray="2 2" />
    <line x1="448.25" y1="1.09278e-08" x2="448.25" y2="176" stroke="white" stroke-opacity="0.1" stroke-width="0.5"
      stroke-dasharray="2 2" />
    <line x1="464.25" y1="1.09278e-08" x2="464.25" y2="176" stroke="white" stroke-opacity="0.1" stroke-width="0.5"
      stroke-dasharray="2 2" />
    <line x1="480.25" y1="1.09278e-08" x2="480.25" y2="176" stroke="white" stroke-opacity="0.1" stroke-width="0.5"
      stroke-dasharray="2 2" />
    <line x1="496.25" y1="1.09278e-08" x2="496.25" y2="176" stroke="white" stroke-opacity="0.1" stroke-width="0.5"
      stroke-dasharray="2 2" />
    <line x1="512.25" y1="1.09278e-08" x2="512.25" y2="176" stroke="white" stroke-opacity="0.1" stroke-width="0.5"
      stroke-dasharray="2 2" />
    <line x1="528.25" y1="1.09278e-08" x2="528.25" y2="176" stroke="white" stroke-opacity="0.1" stroke-width="0.5"
      stroke-dasharray="2 2" />
    <line x1="544.25" y1="1.09278e-08" x2="544.25" y2="176" stroke="white" stroke-opacity="0.1" stroke-width="0.5"
      stroke-dasharray="2 2" />
    <line x1="560.25" y1="1.09278e-08" x2="560.25" y2="176" stroke="white" stroke-opacity="0.1" stroke-width="0.5"
      stroke-dasharray="2 2" />
    <line x1="576.25" y1="1.09278e-08" x2="576.25" y2="176" stroke="white" stroke-opacity="0.1" stroke-width="0.5"
      stroke-dasharray="2 2" />
    <line x1="592.25" y1="1.09278e-08" x2="592.25" y2="176" stroke="white" stroke-opacity="0.1" stroke-width="0.5"
      stroke-dasharray="2 2" />
    <rect width="595" height="160" fill="url(#paint1_linear_1_241)" />
    <line y1="159.75" x2="595" y2="159.75" stroke="transparent" stroke-width="0.5" />
  </g>
  <!-- title -->
  <g class="animate-fade-in-bottom title">
    <path
      d="M125.772 88V56.71H132.282V88H125.772ZM140.057 69.52L139.301 56.71H144.761L144.047 69.52H140.057ZM151.355 88V65.068H157.235V70.654L156.605 69.73C156.941 67.966 157.753 66.664 159.041 65.824C160.329 64.984 161.869 64.564 163.661 64.564C165.565 64.564 167.231 65.054 168.659 66.034C170.115 66.986 171.025 68.274 171.389 69.898L169.583 70.066C170.339 68.19 171.417 66.804 172.817 65.908C174.217 65.012 175.855 64.564 177.731 64.564C179.383 64.564 180.839 64.928 182.099 65.656C183.387 66.384 184.395 67.406 185.123 68.722C185.851 70.01 186.215 71.522 186.215 73.258V88H179.915V74.602C179.915 73.706 179.747 72.936 179.411 72.292C179.103 71.648 178.655 71.144 178.067 70.78C177.479 70.416 176.765 70.234 175.925 70.234C175.113 70.234 174.399 70.416 173.783 70.78C173.195 71.144 172.733 71.648 172.397 72.292C172.089 72.936 171.935 73.706 171.935 74.602V88H165.635V74.602C165.635 73.706 165.467 72.936 165.131 72.292C164.823 71.648 164.375 71.144 163.787 70.78C163.199 70.416 162.485 70.234 161.645 70.234C160.833 70.234 160.119 70.416 159.503 70.78C158.915 71.144 158.453 71.648 158.117 72.292C157.809 72.936 157.655 73.706 157.655 74.602V88H151.355Z"
      fill="#334155" />
    <path
      d="M197.772 88V56.71H204.282V82.33H217.512V88H197.772ZM220.279 88V65.068H226.579V88H220.279ZM220.279 63.01V56.71H226.579V63.01H220.279ZM231.189 88V65.068H237.069V70.57L236.649 69.772C237.153 67.84 237.979 66.538 239.127 65.866C240.303 65.166 241.689 64.816 243.285 64.816H244.629V70.276H242.655C241.115 70.276 239.869 70.752 238.917 71.704C237.965 72.628 237.489 73.944 237.489 75.652V88H231.189ZM258.772 88.504C256.504 88.504 254.432 87.986 252.556 86.95C250.708 85.914 249.224 84.5 248.104 82.708C247.012 80.888 246.466 78.83 246.466 76.534C246.466 74.21 247.012 72.152 248.104 70.36C249.224 68.568 250.708 67.154 252.556 66.118C254.432 65.082 256.504 64.564 258.772 64.564C261.04 64.564 263.098 65.082 264.946 66.118C266.794 67.154 268.264 68.568 269.356 70.36C270.476 72.152 271.036 74.21 271.036 76.534C271.036 78.83 270.476 80.888 269.356 82.708C268.264 84.5 266.794 85.914 264.946 86.95C263.098 87.986 261.04 88.504 258.772 88.504ZM258.772 82.834C259.92 82.834 260.914 82.568 261.754 82.036C262.622 81.504 263.294 80.762 263.77 79.81C264.274 78.858 264.526 77.766 264.526 76.534C264.526 75.302 264.274 74.224 263.77 73.3C263.294 72.348 262.622 71.606 261.754 71.074C260.914 70.514 259.92 70.234 258.772 70.234C257.624 70.234 256.616 70.514 255.748 71.074C254.88 71.606 254.194 72.348 253.69 73.3C253.214 74.224 252.976 75.302 252.976 76.534C252.976 77.766 253.214 78.858 253.69 79.81C254.194 80.762 254.88 81.504 255.748 82.036C256.616 82.568 257.624 82.834 258.772 82.834ZM274.748 88V65.068H280.628V69.604L280.292 68.596C280.824 67.224 281.678 66.216 282.854 65.572C284.058 64.9 285.458 64.564 287.054 64.564C288.79 64.564 290.302 64.928 291.59 65.656C292.906 66.384 293.928 67.406 294.656 68.722C295.384 70.01 295.748 71.522 295.748 73.258V88H289.448V74.602C289.448 73.706 289.266 72.936 288.902 72.292C288.566 71.648 288.076 71.144 287.432 70.78C286.816 70.416 286.088 70.234 285.248 70.234C284.436 70.234 283.708 70.416 283.064 70.78C282.42 71.144 281.916 71.648 281.552 72.292C281.216 72.936 281.048 73.706 281.048 74.602V88H274.748Z"
      fill="#7733FF" />
    <path
      d="M304.462 88L315.046 56.71H323.698L334.282 88H327.184L325.084 81.616H313.618L311.518 88H304.462ZM315.424 75.946H323.278L318.49 61.162H320.254L315.424 75.946ZM349.924 88.504C348.356 88.504 346.9 88.224 345.556 87.664C344.24 87.076 343.176 86.222 342.364 85.102L342.952 83.8V88H337.072V56.206H343.372V69.436L342.406 68.176C343.162 67.028 344.184 66.146 345.472 65.53C346.788 64.886 348.286 64.564 349.966 64.564C352.15 64.564 354.124 65.096 355.888 66.16C357.652 67.224 359.052 68.666 360.088 70.486C361.124 72.278 361.642 74.294 361.642 76.534C361.642 78.746 361.124 80.762 360.088 82.582C359.08 84.402 357.694 85.844 355.93 86.908C354.166 87.972 352.164 88.504 349.924 88.504ZM349.168 82.834C350.344 82.834 351.38 82.568 352.276 82.036C353.172 81.504 353.872 80.762 354.376 79.81C354.88 78.858 355.132 77.766 355.132 76.534C355.132 75.302 354.88 74.224 354.376 73.3C353.872 72.348 353.172 71.606 352.276 71.074C351.38 70.514 350.344 70.234 349.168 70.234C348.048 70.234 347.04 70.5 346.144 71.032C345.276 71.564 344.59 72.306 344.086 73.258C343.61 74.21 343.372 75.302 343.372 76.534C343.372 77.766 343.61 78.858 344.086 79.81C344.59 80.762 345.276 81.504 346.144 82.036C347.04 82.568 348.048 82.834 349.168 82.834ZM373.563 88.504C371.715 88.504 370.133 88.112 368.817 87.328C367.529 86.516 366.549 85.396 365.877 83.968C365.205 82.54 364.869 80.874 364.869 78.97V65.068H371.169V78.466C371.169 79.334 371.337 80.104 371.673 80.776C372.037 81.42 372.541 81.924 373.185 82.288C373.829 82.652 374.557 82.834 375.369 82.834C376.209 82.834 376.937 82.652 377.553 82.288C378.197 81.924 378.687 81.42 379.023 80.776C379.387 80.104 379.569 79.334 379.569 78.466V65.068H385.869V88H379.989V83.464L380.325 84.472C379.793 85.844 378.925 86.866 377.721 87.538C376.545 88.182 375.159 88.504 373.563 88.504ZM401.52 88.252C398.748 88.252 396.592 87.51 395.052 86.026C393.54 84.514 392.784 82.414 392.784 79.726V70.528H388.92V65.068H389.13C390.306 65.068 391.202 64.774 391.818 64.186C392.462 63.598 392.784 62.716 392.784 61.54V59.86H399.084V65.068H404.46V70.528H399.084V79.306C399.084 80.09 399.224 80.748 399.504 81.28C399.784 81.784 400.218 82.162 400.806 82.414C401.394 82.666 402.122 82.792 402.99 82.792C403.186 82.792 403.41 82.778 403.662 82.75C403.914 82.722 404.18 82.694 404.46 82.666V88C404.04 88.056 403.564 88.112 403.032 88.168C402.5 88.224 401.996 88.252 401.52 88.252ZM421.004 88.504C419.436 88.504 417.98 88.224 416.636 87.664C415.32 87.076 414.256 86.222 413.444 85.102L414.032 83.8V88H408.152V56.206H414.452V69.436L413.486 68.176C414.242 67.028 415.264 66.146 416.552 65.53C417.868 64.886 419.366 64.564 421.046 64.564C423.23 64.564 425.204 65.096 426.968 66.16C428.732 67.224 430.132 68.666 431.168 70.486C432.204 72.278 432.722 74.294 432.722 76.534C432.722 78.746 432.204 80.762 431.168 82.582C430.16 84.402 428.774 85.844 427.01 86.908C425.246 87.972 423.244 88.504 421.004 88.504ZM420.248 82.834C421.424 82.834 422.46 82.568 423.356 82.036C424.252 81.504 424.952 80.762 425.456 79.81C425.96 78.858 426.212 77.766 426.212 76.534C426.212 75.302 425.96 74.224 425.456 73.3C424.952 72.348 424.252 71.606 423.356 71.074C422.46 70.514 421.424 70.234 420.248 70.234C419.128 70.234 418.12 70.5 417.224 71.032C416.356 71.564 415.67 72.306 415.166 73.258C414.69 74.21 414.452 75.302 414.452 76.534C414.452 77.766 414.69 78.858 415.166 79.81C415.67 80.762 416.356 81.504 417.224 82.036C418.12 82.568 419.128 82.834 420.248 82.834ZM444.644 88.504C442.796 88.504 441.214 88.112 439.898 87.328C438.61 86.516 437.63 85.396 436.958 83.968C436.286 82.54 435.95 80.874 435.95 78.97V65.068H442.25V78.466C442.25 79.334 442.418 80.104 442.754 80.776C443.118 81.42 443.622 81.924 444.266 82.288C444.91 82.652 445.638 82.834 446.45 82.834C447.29 82.834 448.018 82.652 448.634 82.288C449.278 81.924 449.768 81.42 450.104 80.776C450.468 80.104 450.65 79.334 450.65 78.466V65.068H456.95V88H451.07V83.464L451.406 84.472C450.874 85.844 450.006 86.866 448.802 87.538C447.626 88.182 446.24 88.504 444.644 88.504ZM461.554 88V56.206H467.854V88H461.554Z"
      fill="#334155" />
  </g>
  <!-- end of title -->
  <!-- subtitle -->
  <g class="animate-fade-in-bottom description">
    <path
      d="M194.996 109V100.06H200.66V101.14H196.172V104.032H200.24V105.112H196.172V109H194.996ZM201.497 109V102.532H202.589V103.72L202.469 103.552C202.621 103.184 202.853 102.912 203.165 102.736C203.477 102.552 203.857 102.46 204.305 102.46H204.701V103.516H204.137C203.681 103.516 203.313 103.66 203.033 103.948C202.753 104.228 202.613 104.628 202.613 105.148V109H201.497ZM208.668 109.144C208.044 109.144 207.488 108.996 207 108.7C206.512 108.404 206.128 108 205.848 107.488C205.568 106.968 205.428 106.388 205.428 105.748C205.428 105.1 205.564 104.524 205.836 104.02C206.116 103.516 206.492 103.12 206.964 102.832C207.444 102.536 207.98 102.388 208.572 102.388C209.052 102.388 209.476 102.476 209.844 102.652C210.22 102.82 210.536 103.052 210.792 103.348C211.056 103.636 211.256 103.968 211.392 104.344C211.536 104.712 211.608 105.096 211.608 105.496C211.608 105.584 211.6 105.684 211.584 105.796C211.576 105.9 211.564 106 211.548 106.096H206.244V105.136H210.9L210.372 105.568C210.444 105.152 210.404 104.78 210.252 104.452C210.1 104.124 209.876 103.864 209.58 103.672C209.284 103.48 208.948 103.384 208.572 103.384C208.196 103.384 207.852 103.48 207.54 103.672C207.228 103.864 206.984 104.14 206.808 104.5C206.64 104.852 206.572 105.272 206.604 105.76C206.572 106.232 206.644 106.648 206.82 107.008C207.004 107.36 207.26 107.636 207.588 107.836C207.924 108.028 208.288 108.124 208.68 108.124C209.112 108.124 209.476 108.024 209.772 107.824C210.068 107.624 210.308 107.368 210.492 107.056L211.428 107.536C211.3 107.832 211.1 108.104 210.828 108.352C210.564 108.592 210.248 108.784 209.88 108.928C209.52 109.072 209.116 109.144 208.668 109.144ZM216.039 109.144C215.415 109.144 214.859 108.996 214.371 108.7C213.883 108.404 213.499 108 213.219 107.488C212.939 106.968 212.799 106.388 212.799 105.748C212.799 105.1 212.935 104.524 213.207 104.02C213.487 103.516 213.863 103.12 214.335 102.832C214.815 102.536 215.351 102.388 215.943 102.388C216.423 102.388 216.847 102.476 217.215 102.652C217.591 102.82 217.907 103.052 218.163 103.348C218.427 103.636 218.627 103.968 218.763 104.344C218.907 104.712 218.979 105.096 218.979 105.496C218.979 105.584 218.971 105.684 218.955 105.796C218.947 105.9 218.935 106 218.919 106.096H213.615V105.136H218.271L217.743 105.568C217.815 105.152 217.775 104.78 217.623 104.452C217.471 104.124 217.247 103.864 216.951 103.672C216.655 103.48 216.319 103.384 215.943 103.384C215.567 103.384 215.223 103.48 214.911 103.672C214.599 103.864 214.355 104.14 214.179 104.5C214.011 104.852 213.943 105.272 213.975 105.76C213.943 106.232 214.015 106.648 214.191 107.008C214.375 107.36 214.631 107.636 214.959 107.836C215.295 108.028 215.659 108.124 216.051 108.124C216.483 108.124 216.847 108.024 217.143 107.824C217.439 107.624 217.679 107.368 217.863 107.056L218.799 107.536C218.671 107.832 218.471 108.104 218.199 108.352C217.935 108.592 217.619 108.784 217.251 108.928C216.891 109.072 216.487 109.144 216.039 109.144ZM220.434 109V99.916H221.55V109H220.434ZM225.178 109.144C224.754 109.144 224.378 109.068 224.05 108.916C223.73 108.756 223.478 108.54 223.294 108.268C223.11 107.988 223.018 107.668 223.018 107.308C223.018 106.964 223.09 106.656 223.234 106.384C223.386 106.104 223.618 105.868 223.93 105.676C224.25 105.484 224.65 105.348 225.13 105.268L227.53 104.872V105.808L225.382 106.168C224.966 106.24 224.662 106.372 224.47 106.564C224.286 106.756 224.194 106.992 224.194 107.272C224.194 107.536 224.298 107.756 224.506 107.932C224.722 108.108 224.99 108.196 225.31 108.196C225.718 108.196 226.07 108.112 226.366 107.944C226.67 107.768 226.906 107.532 227.074 107.236C227.25 106.94 227.338 106.612 227.338 106.252V104.608C227.338 104.256 227.206 103.972 226.942 103.756C226.686 103.532 226.346 103.42 225.922 103.42C225.554 103.42 225.226 103.516 224.938 103.708C224.658 103.892 224.45 104.14 224.314 104.452L223.342 103.948C223.462 103.652 223.654 103.388 223.918 103.156C224.182 102.916 224.49 102.728 224.842 102.592C225.194 102.456 225.562 102.388 225.946 102.388C226.442 102.388 226.878 102.484 227.254 102.676C227.63 102.86 227.922 103.12 228.13 103.456C228.346 103.784 228.454 104.168 228.454 104.608V109H227.362V107.776L227.566 107.848C227.43 108.104 227.246 108.328 227.014 108.52C226.782 108.712 226.51 108.864 226.198 108.976C225.886 109.088 225.546 109.144 225.178 109.144ZM230.184 109V102.532H231.276V103.792L231.096 103.684C231.256 103.276 231.512 102.96 231.864 102.736C232.224 102.504 232.644 102.388 233.124 102.388C233.588 102.388 234 102.492 234.36 102.7C234.728 102.908 235.016 103.196 235.224 103.564C235.44 103.932 235.548 104.348 235.548 104.812V109H234.42V105.172C234.42 104.812 234.356 104.508 234.228 104.26C234.1 104.012 233.916 103.82 233.676 103.684C233.444 103.54 233.176 103.468 232.872 103.468C232.568 103.468 232.296 103.54 232.056 103.684C231.824 103.82 231.64 104.016 231.504 104.272C231.368 104.52 231.3 104.82 231.3 105.172V109H230.184ZM240.145 109.144C239.513 109.144 238.949 108.996 238.453 108.7C237.965 108.404 237.581 108 237.301 107.488C237.021 106.976 236.881 106.4 236.881 105.76C236.881 105.112 237.021 104.536 237.301 104.032C237.581 103.528 237.965 103.128 238.453 102.832C238.949 102.536 239.513 102.388 240.145 102.388C240.569 102.388 240.965 102.464 241.333 102.616C241.701 102.768 242.025 102.972 242.305 103.228C242.585 103.484 242.789 103.784 242.917 104.128L241.921 104.608C241.769 104.272 241.537 104 241.225 103.792C240.913 103.576 240.553 103.468 240.145 103.468C239.753 103.468 239.397 103.568 239.077 103.768C238.765 103.968 238.517 104.24 238.333 104.584C238.149 104.928 238.057 105.324 238.057 105.772C238.057 106.204 238.149 106.596 238.333 106.948C238.517 107.292 238.765 107.564 239.077 107.764C239.397 107.964 239.753 108.064 240.145 108.064C240.553 108.064 240.913 107.96 241.225 107.752C241.537 107.536 241.769 107.252 241.921 106.9L242.917 107.404C242.789 107.74 242.585 108.04 242.305 108.304C242.025 108.56 241.701 108.764 241.333 108.916C240.965 109.068 240.569 109.144 240.145 109.144ZM247.352 109.144C246.728 109.144 246.172 108.996 245.684 108.7C245.196 108.404 244.812 108 244.532 107.488C244.252 106.968 244.112 106.388 244.112 105.748C244.112 105.1 244.248 104.524 244.52 104.02C244.8 103.516 245.176 103.12 245.648 102.832C246.128 102.536 246.664 102.388 247.256 102.388C247.736 102.388 248.16 102.476 248.528 102.652C248.904 102.82 249.22 103.052 249.476 103.348C249.74 103.636 249.94 103.968 250.076 104.344C250.22 104.712 250.292 105.096 250.292 105.496C250.292 105.584 250.284 105.684 250.268 105.796C250.26 105.9 250.248 106 250.232 106.096H244.928V105.136H249.584L249.056 105.568C249.128 105.152 249.088 104.78 248.936 104.452C248.784 104.124 248.56 103.864 248.264 103.672C247.968 103.48 247.632 103.384 247.256 103.384C246.88 103.384 246.536 103.48 246.224 103.672C245.912 103.864 245.668 104.14 245.492 104.5C245.324 104.852 245.256 105.272 245.288 105.76C245.256 106.232 245.328 106.648 245.504 107.008C245.688 107.36 245.944 107.636 246.272 107.836C246.608 108.028 246.972 108.124 247.364 108.124C247.796 108.124 248.16 108.024 248.456 107.824C248.752 107.624 248.992 107.368 249.176 107.056L250.112 107.536C249.984 107.832 249.784 108.104 249.512 108.352C249.248 108.592 248.932 108.784 248.564 108.928C248.204 109.072 247.8 109.144 247.352 109.144ZM251.747 109V102.532H252.839V103.72L252.719 103.552C252.871 103.184 253.103 102.912 253.415 102.736C253.727 102.552 254.107 102.46 254.555 102.46H254.951V103.516H254.387C253.931 103.516 253.563 103.66 253.283 103.948C253.003 104.228 252.863 104.628 252.863 105.148V109H251.747ZM258.472 106.492V105.052H259.636V106.492H258.472ZM268.147 109.144C267.515 109.144 266.931 109.032 266.395 108.808C265.867 108.576 265.403 108.252 265.003 107.836C264.611 107.42 264.307 106.932 264.091 106.372C263.875 105.812 263.767 105.2 263.767 104.536C263.767 103.864 263.875 103.248 264.091 102.688C264.307 102.128 264.611 101.64 265.003 101.224C265.395 100.808 265.859 100.488 266.395 100.264C266.931 100.032 267.515 99.916 268.147 99.916C268.763 99.916 269.315 100.024 269.803 100.24C270.299 100.456 270.715 100.736 271.051 101.08C271.395 101.424 271.639 101.792 271.783 102.184L270.703 102.676C270.495 102.18 270.171 101.78 269.731 101.476C269.291 101.164 268.763 101.008 268.147 101.008C267.523 101.008 266.967 101.156 266.479 101.452C265.999 101.748 265.623 102.16 265.351 102.688C265.079 103.216 264.943 103.832 264.943 104.536C264.943 105.232 265.079 105.844 265.351 106.372C265.623 106.9 265.999 107.312 266.479 107.608C266.967 107.904 267.523 108.052 268.147 108.052C268.763 108.052 269.291 107.9 269.731 107.596C270.171 107.284 270.495 106.88 270.703 106.384L271.783 106.876C271.639 107.268 271.395 107.636 271.051 107.98C270.715 108.324 270.299 108.604 269.803 108.82C269.315 109.036 268.763 109.144 268.147 109.144ZM273.251 109V102.532H274.343V103.72L274.223 103.552C274.375 103.184 274.607 102.912 274.919 102.736C275.231 102.552 275.611 102.46 276.059 102.46H276.455V103.516H275.891C275.435 103.516 275.067 103.66 274.787 103.948C274.507 104.228 274.367 104.628 274.367 105.148V109H273.251ZM280.518 109.144C279.894 109.144 279.33 109 278.826 108.712C278.322 108.416 277.922 108.012 277.626 107.5C277.33 106.988 277.182 106.408 277.182 105.76C277.182 105.112 277.326 104.536 277.614 104.032C277.91 103.528 278.31 103.128 278.814 102.832C279.318 102.536 279.886 102.388 280.518 102.388C281.142 102.388 281.706 102.536 282.21 102.832C282.714 103.12 283.11 103.516 283.398 104.02C283.694 104.524 283.842 105.104 283.842 105.76C283.842 106.416 283.69 107 283.386 107.512C283.082 108.016 282.678 108.416 282.174 108.712C281.678 109 281.126 109.144 280.518 109.144ZM280.518 108.064C280.918 108.064 281.278 107.964 281.598 107.764C281.926 107.564 282.182 107.288 282.366 106.936C282.558 106.584 282.654 106.192 282.654 105.76C282.654 105.32 282.558 104.932 282.366 104.596C282.182 104.252 281.926 103.98 281.598 103.78C281.278 103.572 280.918 103.468 280.518 103.468C280.11 103.468 279.742 103.572 279.414 103.78C279.094 103.98 278.838 104.252 278.646 104.596C278.454 104.932 278.358 105.32 278.358 105.76C278.358 106.192 278.454 106.584 278.646 106.936C278.838 107.288 279.094 107.564 279.414 107.764C279.742 107.964 280.11 108.064 280.518 108.064ZM287.614 109.144C286.966 109.144 286.402 108.984 285.922 108.664C285.442 108.344 285.102 107.912 284.902 107.368L285.79 106.936C285.974 107.32 286.226 107.624 286.546 107.848C286.866 108.072 287.222 108.184 287.614 108.184C287.966 108.184 288.258 108.1 288.49 107.932C288.722 107.764 288.838 107.544 288.838 107.272C288.838 107.08 288.782 106.928 288.67 106.816C288.566 106.696 288.438 106.604 288.286 106.54C288.134 106.468 287.994 106.416 287.866 106.384L286.894 106.108C286.31 105.94 285.882 105.7 285.61 105.388C285.346 105.076 285.214 104.712 285.214 104.296C285.214 103.912 285.31 103.58 285.502 103.3C285.702 103.012 285.97 102.788 286.306 102.628C286.65 102.468 287.034 102.388 287.458 102.388C288.026 102.388 288.534 102.532 288.982 102.82C289.438 103.108 289.762 103.512 289.954 104.032L289.042 104.452C288.898 104.116 288.682 103.852 288.394 103.66C288.106 103.46 287.782 103.36 287.422 103.36C287.094 103.36 286.834 103.444 286.642 103.612C286.45 103.772 286.354 103.976 286.354 104.224C286.354 104.408 286.402 104.56 286.498 104.68C286.594 104.792 286.71 104.88 286.846 104.944C286.982 105 287.114 105.048 287.242 105.088L288.298 105.4C288.826 105.552 289.234 105.788 289.522 106.108C289.818 106.428 289.966 106.812 289.966 107.26C289.966 107.62 289.866 107.944 289.666 108.232C289.466 108.52 289.19 108.744 288.838 108.904C288.486 109.064 288.078 109.144 287.614 109.144ZM293.743 109.144C293.095 109.144 292.531 108.984 292.051 108.664C291.571 108.344 291.231 107.912 291.031 107.368L291.919 106.936C292.103 107.32 292.355 107.624 292.675 107.848C292.995 108.072 293.351 108.184 293.743 108.184C294.095 108.184 294.387 108.1 294.619 107.932C294.851 107.764 294.967 107.544 294.967 107.272C294.967 107.08 294.911 106.928 294.799 106.816C294.695 106.696 294.567 106.604 294.415 106.54C294.263 106.468 294.123 106.416 293.995 106.384L293.023 106.108C292.439 105.94 292.011 105.7 291.739 105.388C291.475 105.076 291.343 104.712 291.343 104.296C291.343 103.912 291.439 103.58 291.631 103.3C291.831 103.012 292.099 102.788 292.435 102.628C292.779 102.468 293.163 102.388 293.587 102.388C294.155 102.388 294.663 102.532 295.111 102.82C295.567 103.108 295.891 103.512 296.083 104.032L295.171 104.452C295.027 104.116 294.811 103.852 294.523 103.66C294.235 103.46 293.911 103.36 293.551 103.36C293.223 103.36 292.963 103.444 292.771 103.612C292.579 103.772 292.483 103.976 292.483 104.224C292.483 104.408 292.531 104.56 292.627 104.68C292.723 104.792 292.839 104.88 292.975 104.944C293.111 105 293.243 105.048 293.371 105.088L294.427 105.4C294.955 105.552 295.363 105.788 295.651 106.108C295.947 106.428 296.095 106.812 296.095 107.26C296.095 107.62 295.995 107.944 295.795 108.232C295.595 108.52 295.319 108.744 294.967 108.904C294.615 109.064 294.207 109.144 293.743 109.144ZM297.639 106.276V105.256H302.139V106.276H297.639ZM304.074 109V100.06H307.23C307.822 100.06 308.342 100.172 308.79 100.396C309.238 100.62 309.586 100.94 309.834 101.356C310.09 101.772 310.218 102.26 310.218 102.82C310.218 103.38 310.09 103.868 309.834 104.284C309.586 104.692 309.238 105.012 308.79 105.244C308.35 105.468 307.83 105.58 307.23 105.58H305.25V109H304.074ZM305.25 104.5H307.266C307.626 104.5 307.938 104.432 308.202 104.296C308.466 104.16 308.67 103.964 308.814 103.708C308.958 103.452 309.03 103.156 309.03 102.82C309.03 102.476 308.958 102.18 308.814 101.932C308.67 101.676 308.466 101.48 308.202 101.344C307.938 101.208 307.626 101.14 307.266 101.14H305.25V104.5ZM311.677 109V99.916H312.793V109H311.677ZM316.42 109.144C315.996 109.144 315.62 109.068 315.292 108.916C314.972 108.756 314.72 108.54 314.536 108.268C314.352 107.988 314.26 107.668 314.26 107.308C314.26 106.964 314.332 106.656 314.476 106.384C314.628 106.104 314.86 105.868 315.172 105.676C315.492 105.484 315.892 105.348 316.372 105.268L318.772 104.872V105.808L316.624 106.168C316.208 106.24 315.904 106.372 315.712 106.564C315.528 106.756 315.436 106.992 315.436 107.272C315.436 107.536 315.54 107.756 315.748 107.932C315.964 108.108 316.232 108.196 316.552 108.196C316.96 108.196 317.312 108.112 317.608 107.944C317.912 107.768 318.148 107.532 318.316 107.236C318.492 106.94 318.58 106.612 318.58 106.252V104.608C318.58 104.256 318.448 103.972 318.184 103.756C317.928 103.532 317.588 103.42 317.164 103.42C316.796 103.42 316.468 103.516 316.18 103.708C315.9 103.892 315.692 104.14 315.556 104.452L314.584 103.948C314.704 103.652 314.896 103.388 315.16 103.156C315.424 102.916 315.732 102.728 316.084 102.592C316.436 102.456 316.804 102.388 317.188 102.388C317.684 102.388 318.12 102.484 318.496 102.676C318.872 102.86 319.164 103.12 319.372 103.456C319.588 103.784 319.696 104.168 319.696 104.608V109H318.604V107.776L318.808 107.848C318.672 108.104 318.488 108.328 318.256 108.52C318.024 108.712 317.752 108.864 317.44 108.976C317.128 109.088 316.788 109.144 316.42 109.144ZM323.937 109.072C323.305 109.072 322.817 108.892 322.473 108.532C322.137 108.172 321.969 107.664 321.969 107.008V103.6H320.793V102.532H321.033C321.321 102.532 321.549 102.444 321.717 102.268C321.885 102.092 321.969 101.86 321.969 101.572V101.044H323.085V102.532H324.537V103.6H323.085V106.972C323.085 107.188 323.117 107.376 323.181 107.536C323.253 107.696 323.369 107.824 323.529 107.92C323.689 108.008 323.901 108.052 324.165 108.052C324.221 108.052 324.289 108.048 324.369 108.04C324.457 108.032 324.537 108.024 324.609 108.016V109C324.505 109.024 324.389 109.04 324.261 109.048C324.133 109.064 324.025 109.072 323.937 109.072ZM326.751 109V103.6H325.515V102.532H326.751V102.076C326.751 101.612 326.851 101.22 327.051 100.9C327.259 100.58 327.531 100.336 327.867 100.168C328.211 100 328.591 99.916 329.007 99.916C329.095 99.916 329.191 99.924 329.295 99.94C329.407 99.948 329.499 99.96 329.571 99.976V100.972C329.507 100.956 329.431 100.948 329.343 100.948C329.255 100.94 329.187 100.936 329.139 100.936C328.771 100.936 328.467 101.024 328.227 101.2C327.995 101.376 327.879 101.668 327.879 102.076V102.532H329.415V103.6H327.879V109H326.751ZM333.604 109.144C332.98 109.144 332.416 109 331.912 108.712C331.408 108.416 331.008 108.012 330.712 107.5C330.416 106.988 330.268 106.408 330.268 105.76C330.268 105.112 330.412 104.536 330.7 104.032C330.996 103.528 331.396 103.128 331.9 102.832C332.404 102.536 332.972 102.388 333.604 102.388C334.228 102.388 334.792 102.536 335.296 102.832C335.8 103.12 336.196 103.516 336.484 104.02C336.78 104.524 336.928 105.104 336.928 105.76C336.928 106.416 336.776 107 336.472 107.512C336.168 108.016 335.764 108.416 335.26 108.712C334.764 109 334.212 109.144 333.604 109.144ZM333.604 108.064C334.004 108.064 334.364 107.964 334.684 107.764C335.012 107.564 335.268 107.288 335.452 106.936C335.644 106.584 335.74 106.192 335.74 105.76C335.74 105.32 335.644 104.932 335.452 104.596C335.268 104.252 335.012 103.98 334.684 103.78C334.364 103.572 334.004 103.468 333.604 103.468C333.196 103.468 332.828 103.572 332.5 103.78C332.18 103.98 331.924 104.252 331.732 104.596C331.54 104.932 331.444 105.32 331.444 105.76C331.444 106.192 331.54 106.584 331.732 106.936C331.924 107.288 332.18 107.564 332.5 107.764C332.828 107.964 333.196 108.064 333.604 108.064ZM338.384 109V102.532H339.476V103.72L339.356 103.552C339.508 103.184 339.74 102.912 340.052 102.736C340.364 102.552 340.744 102.46 341.192 102.46H341.588V103.516H341.024C340.568 103.516 340.2 103.66 339.92 103.948C339.64 104.228 339.5 104.628 339.5 105.148V109H338.384ZM342.579 109V102.532H343.671V103.852L343.515 103.648C343.675 103.24 343.931 102.928 344.283 102.712C344.635 102.496 345.031 102.388 345.471 102.388C345.975 102.388 346.427 102.528 346.827 102.808C347.235 103.088 347.515 103.456 347.667 103.912L347.355 103.924C347.523 103.42 347.807 103.04 348.207 102.784C348.607 102.52 349.051 102.388 349.539 102.388C349.987 102.388 350.391 102.492 350.751 102.7C351.119 102.908 351.411 103.196 351.627 103.564C351.843 103.932 351.951 104.348 351.951 104.812V109H350.823V105.172C350.823 104.812 350.759 104.508 350.631 104.26C350.503 104.012 350.327 103.82 350.103 103.684C349.887 103.54 349.631 103.468 349.335 103.468C349.047 103.468 348.787 103.54 348.555 103.684C348.331 103.82 348.151 104.016 348.015 104.272C347.887 104.52 347.823 104.82 347.823 105.172V109H346.695V105.172C346.695 104.812 346.631 104.508 346.503 104.26C346.375 104.012 346.199 103.82 345.975 103.684C345.759 103.54 345.503 103.468 345.207 103.468C344.919 103.468 344.659 103.54 344.427 103.684C344.203 103.82 344.023 104.016 343.887 104.272C343.759 104.52 343.695 104.82 343.695 105.172V109H342.579ZM355.742 109V100.06H358.67C359.574 100.06 360.362 100.244 361.034 100.612C361.706 100.98 362.226 101.5 362.594 102.172C362.962 102.836 363.146 103.62 363.146 104.524C363.146 105.42 362.962 106.204 362.594 106.876C362.226 107.548 361.706 108.072 361.034 108.448C360.362 108.816 359.574 109 358.67 109H355.742ZM356.918 107.92H358.682C359.346 107.92 359.918 107.78 360.398 107.5C360.886 107.22 361.262 106.828 361.526 106.324C361.79 105.812 361.922 105.212 361.922 104.524C361.922 103.828 361.786 103.228 361.514 102.724C361.25 102.22 360.874 101.832 360.386 101.56C359.906 101.28 359.338 101.14 358.682 101.14H356.918V107.92ZM367.481 109.144C366.857 109.144 366.301 108.996 365.813 108.7C365.325 108.404 364.941 108 364.661 107.488C364.381 106.968 364.241 106.388 364.241 105.748C364.241 105.1 364.377 104.524 364.649 104.02C364.929 103.516 365.305 103.12 365.777 102.832C366.257 102.536 366.793 102.388 367.385 102.388C367.865 102.388 368.289 102.476 368.657 102.652C369.033 102.82 369.349 103.052 369.605 103.348C369.869 103.636 370.069 103.968 370.205 104.344C370.349 104.712 370.421 105.096 370.421 105.496C370.421 105.584 370.413 105.684 370.397 105.796C370.389 105.9 370.377 106 370.361 106.096H365.057V105.136H369.713L369.185 105.568C369.257 105.152 369.217 104.78 369.065 104.452C368.913 104.124 368.689 103.864 368.393 103.672C368.097 103.48 367.761 103.384 367.385 103.384C367.009 103.384 366.665 103.48 366.353 103.672C366.041 103.864 365.797 104.14 365.621 104.5C365.453 104.852 365.385 105.272 365.417 105.76C365.385 106.232 365.457 106.648 365.633 107.008C365.817 107.36 366.073 107.636 366.401 107.836C366.737 108.028 367.101 108.124 367.493 108.124C367.925 108.124 368.289 108.024 368.585 107.824C368.881 107.624 369.121 107.368 369.305 107.056L370.241 107.536C370.113 107.832 369.913 108.104 369.641 108.352C369.377 108.592 369.061 108.784 368.693 108.928C368.333 109.072 367.929 109.144 367.481 109.144ZM373.559 109L371.027 102.532H372.275L374.303 108.004H373.871L375.911 102.532H377.159L374.615 109H373.559ZM381.016 109.144C380.392 109.144 379.836 108.996 379.348 108.7C378.86 108.404 378.476 108 378.196 107.488C377.916 106.968 377.776 106.388 377.776 105.748C377.776 105.1 377.912 104.524 378.184 104.02C378.464 103.516 378.84 103.12 379.312 102.832C379.792 102.536 380.328 102.388 380.92 102.388C381.4 102.388 381.824 102.476 382.192 102.652C382.568 102.82 382.884 103.052 383.14 103.348C383.404 103.636 383.604 103.968 383.74 104.344C383.884 104.712 383.956 105.096 383.956 105.496C383.956 105.584 383.948 105.684 383.932 105.796C383.924 105.9 383.912 106 383.896 106.096H378.592V105.136H383.248L382.72 105.568C382.792 105.152 382.752 104.78 382.6 104.452C382.448 104.124 382.224 103.864 381.928 103.672C381.632 103.48 381.296 103.384 380.92 103.384C380.544 103.384 380.2 103.48 379.888 103.672C379.576 103.864 379.332 104.14 379.156 104.5C378.988 104.852 378.92 105.272 378.952 105.76C378.92 106.232 378.992 106.648 379.168 107.008C379.352 107.36 379.608 107.636 379.936 107.836C380.272 108.028 380.636 108.124 381.028 108.124C381.46 108.124 381.824 108.024 382.12 107.824C382.416 107.624 382.656 107.368 382.84 107.056L383.776 107.536C383.648 107.832 383.448 108.104 383.176 108.352C382.912 108.592 382.596 108.784 382.228 108.928C381.868 109.072 381.464 109.144 381.016 109.144ZM385.411 109V99.916H386.527V109H385.411ZM391.331 109.144C390.707 109.144 390.143 109 389.639 108.712C389.135 108.416 388.735 108.012 388.439 107.5C388.143 106.988 387.995 106.408 387.995 105.76C387.995 105.112 388.139 104.536 388.427 104.032C388.723 103.528 389.123 103.128 389.627 102.832C390.131 102.536 390.699 102.388 391.331 102.388C391.955 102.388 392.519 102.536 393.023 102.832C393.527 103.12 393.923 103.516 394.211 104.02C394.507 104.524 394.655 105.104 394.655 105.76C394.655 106.416 394.503 107 394.199 107.512C393.895 108.016 393.491 108.416 392.987 108.712C392.491 109 391.939 109.144 391.331 109.144ZM391.331 108.064C391.731 108.064 392.091 107.964 392.411 107.764C392.739 107.564 392.995 107.288 393.179 106.936C393.371 106.584 393.467 106.192 393.467 105.76C393.467 105.32 393.371 104.932 393.179 104.596C392.995 104.252 392.739 103.98 392.411 103.78C392.091 103.572 391.731 103.468 391.331 103.468C390.923 103.468 390.555 103.572 390.227 103.78C389.907 103.98 389.651 104.252 389.459 104.596C389.267 104.932 389.171 105.32 389.171 105.76C389.171 106.192 389.267 106.584 389.459 106.936C389.651 107.288 389.907 107.564 390.227 107.764C390.555 107.964 390.923 108.064 391.331 108.064ZM396.11 111.4V102.532H397.202V103.924L397.058 103.648C397.298 103.264 397.626 102.96 398.042 102.736C398.458 102.504 398.934 102.388 399.47 102.388C400.078 102.388 400.622 102.536 401.102 102.832C401.59 103.128 401.974 103.532 402.254 104.044C402.534 104.548 402.674 105.124 402.674 105.772C402.674 106.404 402.534 106.976 402.254 107.488C401.974 108 401.59 108.404 401.102 108.7C400.622 108.996 400.074 109.144 399.458 109.144C398.938 109.144 398.462 109.028 398.03 108.796C397.606 108.564 397.278 108.236 397.046 107.812L397.226 107.62V111.4H396.11ZM399.374 108.064C399.782 108.064 400.146 107.964 400.466 107.764C400.786 107.564 401.034 107.292 401.21 106.948C401.394 106.596 401.486 106.204 401.486 105.772C401.486 105.324 401.394 104.932 401.21 104.596C401.034 104.252 400.786 103.98 400.466 103.78C400.146 103.572 399.782 103.468 399.374 103.468C398.966 103.468 398.598 103.568 398.27 103.768C397.95 103.968 397.694 104.244 397.502 104.596C397.318 104.94 397.226 105.332 397.226 105.772C397.226 106.204 397.318 106.596 397.502 106.948C397.694 107.292 397.95 107.564 398.27 107.764C398.598 107.964 398.966 108.064 399.374 108.064ZM407.113 109.144C406.489 109.144 405.933 108.996 405.445 108.7C404.957 108.404 404.573 108 404.293 107.488C404.013 106.968 403.873 106.388 403.873 105.748C403.873 105.1 404.009 104.524 404.281 104.02C404.561 103.516 404.937 103.12 405.409 102.832C405.889 102.536 406.425 102.388 407.017 102.388C407.497 102.388 407.921 102.476 408.289 102.652C408.665 102.82 408.981 103.052 409.237 103.348C409.501 103.636 409.701 103.968 409.837 104.344C409.981 104.712 410.053 105.096 410.053 105.496C410.053 105.584 410.045 105.684 410.029 105.796C410.021 105.9 410.009 106 409.993 106.096H404.689V105.136H409.345L408.817 105.568C408.889 105.152 408.849 104.78 408.697 104.452C408.545 104.124 408.321 103.864 408.025 103.672C407.729 103.48 407.393 103.384 407.017 103.384C406.641 103.384 406.297 103.48 405.985 103.672C405.673 103.864 405.429 104.14 405.253 104.5C405.085 104.852 405.017 105.272 405.049 105.76C405.017 106.232 405.089 106.648 405.265 107.008C405.449 107.36 405.705 107.636 406.033 107.836C406.369 108.028 406.733 108.124 407.125 108.124C407.557 108.124 407.921 108.024 408.217 107.824C408.513 107.624 408.753 107.368 408.937 107.056L409.873 107.536C409.745 107.832 409.545 108.104 409.273 108.352C409.009 108.592 408.693 108.784 408.325 108.928C407.965 109.072 407.561 109.144 407.113 109.144ZM411.509 109V102.532H412.601V103.72L412.481 103.552C412.633 103.184 412.865 102.912 413.177 102.736C413.489 102.552 413.869 102.46 414.317 102.46H414.713V103.516H414.149C413.693 103.516 413.325 103.66 413.045 103.948C412.765 104.228 412.625 104.628 412.625 105.148V109H411.509Z"
      fill="#64748B" />
  </g>
  <!-- end of subtitle -->
  <!-- available for hire -->
  <g class="animate-fade-in-right additional">
    <g class="additional__indicator animate-fade-in">
      <circle cx="245" cy="125" r="3" fill="#7733FF" class="animate-ping" />
      <circle cx="245" cy="125" r="2" fill="#7733FF" />
    </g>
    <g filter="url(#filter1_d_1_241)">
      <path
        d="M256.099 129L258.457 122.295H259.771L262.129 129H260.995L260.482 127.497H257.755L257.233 129H256.099ZM258.061 126.552H260.158L258.97 123.042H259.267L258.061 126.552ZM264.258 129L261.882 122.295H263.025L264.969 128.019H264.744L266.679 122.295H267.822L265.446 129H264.258ZM267.569 129L269.927 122.295H271.241L273.599 129H272.465L271.952 127.497H269.225L268.703 129H267.569ZM269.531 126.552H271.628L270.44 123.042H270.737L269.531 126.552ZM274.394 129V122.295H275.456V129H274.394ZM276.846 129V122.295H277.908V128.055H280.806V129H276.846ZM281.104 129L283.462 122.295H284.776L287.134 129H286L285.487 127.497H282.76L282.238 129H281.104ZM283.066 126.552H285.163L283.975 123.042H284.272L283.066 126.552ZM287.929 129V122.295H290.755C291.175 122.295 291.538 122.37 291.844 122.52C292.15 122.664 292.384 122.874 292.546 123.15C292.708 123.42 292.789 123.741 292.789 124.113C292.789 124.437 292.705 124.734 292.537 125.004C292.375 125.268 292.12 125.478 291.772 125.634V125.184C292.078 125.304 292.327 125.457 292.519 125.643C292.711 125.823 292.849 126.027 292.933 126.255C293.023 126.483 293.068 126.723 293.068 126.975C293.068 127.605 292.861 128.1 292.447 128.46C292.039 128.82 291.478 129 290.764 129H287.929ZM288.991 128.055H290.845C291.199 128.055 291.481 127.959 291.691 127.767C291.901 127.569 292.006 127.308 292.006 126.984C292.006 126.654 291.901 126.393 291.691 126.201C291.481 126.003 291.199 125.904 290.845 125.904H288.991V128.055ZM288.991 124.968H290.782C291.07 124.968 291.301 124.887 291.475 124.725C291.649 124.557 291.736 124.338 291.736 124.068C291.736 123.798 291.649 123.588 291.475 123.438C291.301 123.288 291.07 123.213 290.782 123.213H288.991V124.968ZM294.161 129V122.295H295.223V128.055H298.121V129H294.161ZM299.012 129V122.295H303.431V123.24H300.074V125.166H303.251V126.111H300.074V128.055H303.431V129H299.012ZM305.991 129V122.295H310.356V123.24H307.053V125.256H309.996V126.201H307.053V129H305.991ZM314.417 129.108C313.931 129.108 313.478 129.021 313.058 128.847C312.644 128.673 312.278 128.43 311.96 128.118C311.648 127.806 311.402 127.44 311.222 127.02C311.048 126.6 310.961 126.141 310.961 125.643C310.961 125.145 311.048 124.686 311.222 124.266C311.402 123.84 311.648 123.474 311.96 123.168C312.272 122.856 312.638 122.616 313.058 122.448C313.478 122.274 313.931 122.187 314.417 122.187C314.909 122.187 315.362 122.274 315.776 122.448C316.196 122.616 316.562 122.856 316.874 123.168C317.192 123.48 317.438 123.846 317.612 124.266C317.786 124.686 317.873 125.145 317.873 125.643C317.873 126.141 317.783 126.6 317.603 127.02C317.429 127.44 317.186 127.806 316.874 128.118C316.562 128.43 316.196 128.673 315.776 128.847C315.356 129.021 314.903 129.108 314.417 129.108ZM314.417 128.136C314.765 128.136 315.083 128.073 315.371 127.947C315.665 127.821 315.92 127.647 316.136 127.425C316.352 127.197 316.52 126.933 316.64 126.633C316.76 126.327 316.82 125.997 316.82 125.643C316.82 125.289 316.76 124.962 316.64 124.662C316.52 124.362 316.352 124.098 316.136 123.87C315.92 123.642 315.665 123.465 315.371 123.339C315.083 123.213 314.765 123.15 314.417 123.15C314.069 123.15 313.748 123.213 313.454 123.339C313.166 123.465 312.914 123.642 312.698 123.87C312.482 124.098 312.314 124.362 312.194 124.662C312.08 124.962 312.023 125.289 312.023 125.643C312.023 125.997 312.08 126.327 312.194 126.633C312.314 126.933 312.482 127.197 312.698 127.425C312.914 127.647 313.169 127.821 313.463 127.947C313.757 128.073 314.075 128.136 314.417 128.136ZM319.06 129V122.295H321.499C321.949 122.295 322.345 122.379 322.687 122.547C323.029 122.709 323.296 122.949 323.488 123.267C323.686 123.579 323.785 123.954 323.785 124.392C323.785 124.854 323.668 125.25 323.434 125.58C323.206 125.91 322.897 126.15 322.507 126.3L324.055 129H322.849L321.202 126.075L321.895 126.48H320.122V129H319.06ZM320.122 125.535H321.517C321.763 125.535 321.976 125.487 322.156 125.391C322.336 125.295 322.474 125.163 322.57 124.995C322.672 124.821 322.723 124.617 322.723 124.383C322.723 124.149 322.672 123.948 322.57 123.78C322.474 123.606 322.336 123.474 322.156 123.384C321.976 123.288 321.763 123.24 321.517 123.24H320.122V125.535ZM326.522 129V122.295H327.584V125.247H330.689V122.295H331.742V129H330.689V126.192H327.584V129H326.522ZM333.131 129V122.295H334.193V129H333.131ZM335.584 129V122.295H338.023C338.473 122.295 338.869 122.379 339.211 122.547C339.553 122.709 339.82 122.949 340.012 123.267C340.21 123.579 340.309 123.954 340.309 124.392C340.309 124.854 340.192 125.25 339.958 125.58C339.73 125.91 339.421 126.15 339.031 126.3L340.579 129H339.373L337.726 126.075L338.419 126.48H336.646V129H335.584ZM336.646 125.535H338.041C338.287 125.535 338.5 125.487 338.68 125.391C338.86 125.295 338.998 125.163 339.094 124.995C339.196 124.821 339.247 124.617 339.247 124.383C339.247 124.149 339.196 123.948 339.094 123.78C338.998 123.606 338.86 123.474 338.68 123.384C338.5 123.288 338.287 123.24 338.041 123.24H336.646V125.535ZM341.472 129V122.295H345.891V123.24H342.534V125.166H345.711V126.111H342.534V128.055H345.891V129H341.472Z"
        fill="#7733FF" />
    </g>
  </g>
  <!-- end of available for hire -->
  <defs>
    <filter id="filter0_f_1_241" x="-217.765" y="-315.703" width="1019.71" height="591.217" filterUnits="userSpaceOnUse"
      color-interpolation-filters="sRGB">
      <feFlood flood-opacity="0" result="BackgroundImageFix" />
      <feBlend mode="normal" in="SourceGraphic" in2="BackgroundImageFix" result="shape" />
      <feGaussianBlur stdDeviation="60" result="effect1_foregroundBlur_1_241" />
    </filter>
    <filter id="filter1_d_1_241" x="252.099" y="122.187" width="97.7923" height="14.921" filterUnits="userSpaceOnUse"
      color-interpolation-filters="sRGB">
      <feFlood flood-opacity="0" result="BackgroundImageFix" />
      <feColorMatrix in="SourceAlpha" type="matrix" values="0 0 0 0 0 0 0 0 0 0 0 0 0 0 0 0 0 0 127 0"
        result="hardAlpha" />
      <feOffset dy="4" />
      <feGaussianBlur stdDeviation="2" />
      <feComposite in2="hardAlpha" operator="out" />
      <feColorMatrix type="matrix" values="0 0 0 0 0 0 0 0 0 0 0 0 0 0 0 0 0 0 0.25 0" />
      <feBlend mode="normal" in2="BackgroundImageFix" result="effect1_dropShadow_1_241" />
      <feBlend mode="normal" in="SourceGraphic" in2="effect1_dropShadow_1_241" result="shape" />
    </filter>
    <radialGradient id="paint0_angular_1_241" cx="0" cy="0" r="1" gradientUnits="userSpaceOnUse"
      gradientTransform="translate(291.821 -23.5992) rotate(89.8965) scale(99.0993 237.18)">
      <!-- <stop stop-color="#FE79B9" />
      <stop offset="0.416667" stop-color="#AD00FF" />
      <stop offset="1" stop-color="#2489FF" /> -->
      <stop stop-color="#e2e8f0" />
      <stop offset="0.416667" stop-color="#e2e8f0" />
      <stop offset="1" stop-color="#e2e8f0" />
    </radialGradient>
    <linearGradient id="paint1_linear_1_241" x1="297.5" y1="0" x2="297.5" y2="160" gradientUnits="userSpaceOnUse">
      <stop stop-color="transparent" stop-opacity="0" />
      <stop offset="1" stop-color="transparent" />
    </linearGradient>
    <clipPath id="clip0_1_241">
      <rect width="595" height="160" rx="25" fill="transparent" />
    </clipPath>
  </defs>
</svg>